<svg width="171px" height="100px" xmlns="http://www.w3.org/2000/svg" viewBox="175 25 150 150" style="background-color: transparent;" preserveAspectRatio="xMidYMid"><defs><filter id="editing-golden" x="-100%" y="-100%" width="300%" height="300%"><feFlood flood-color="#000000" result="flood"></feFlood><feFlood flood-color="#eaa5a5" result="flood-light"></feFlood><feComposite operator="in" in="flood" in2="SourceAlpha" result="flood-comp"></feComposite><feGaussianBlur in="flood-comp" stdDeviation="3" result="blur"></feGaussianBlur><feOffset in="blur" dy="3" result="offset-blur"></feOffset><feComponentTransfer in="offset-blur" result="comp-blur"><feFuncA type="linear" slope="0.7" intercept="-0.1"></feFuncA></feComponentTransfer><feSpecularLighting surfaceScale="200" specularConstant="20" specularExponent="1" lighting-color="#fff" in="blur" result="specular"><fePointLight x="-250" y="-250" z="3500"></fePointLight></feSpecularLighting><feComponentTransfer in="specular" result="inspecular"><feFuncA type="linear" slope="-1" intercept="1"></feFuncA></feComponentTransfer><feComposite operator="in" in="flood-light" in2="inspecular" result="inspecular2"></feComposite><feComposite operator="in" in="inspecular2" in2="SourceAlpha" result="light"></feComposite><feMerge><feMergeNode in="comp-blur"></feMergeNode><feMergeNode in="SourceGraphic"></feMergeNode><feMergeNode in="light"></feMergeNode></feMerge></filter></defs><g filter="url(#editing-golden)"><g transform="translate(119.08499717712402, 130.10500073432922)"><path d="M27.50-50.40L27.50-50.40L27.50-50.40Q23.22-39.91 23.22-30.87L23.22-30.87L23.22-30.87Q23.22-21.83 26.91-17.55L26.91-17.55L26.91-17.55Q30.60-13.27 38.84-13.27L38.84-13.27L38.84-13.27Q43.76-13.27 47.51-16.80L47.51-16.80L47.51-16.80Q48.69-25.57 49.43-28.46L49.43-28.46L49.43-28.46Q51.25-35.52 55.00-35.52L55.00-35.52L55.00-35.52Q57.99-35.52 60.67-31.40L60.67-31.40L60.67-31.40Q63.34-27.29 63.24-24.40L63.24-24.40L63.24-24.40Q63.24-19.58 59.38-6.53L59.38-6.53L59.38-6.53Q66.88-12.20 76.61-23.33L76.61-23.33L76.61-23.33Q78.00-24.93 78.97-24.93L78.97-24.93L78.97-24.93Q80.46-24.93 80.46-21.40L80.46-21.40L80.46-21.40Q80.46-14.55 73.62-6.79L73.62-6.79L73.62-6.79Q66.77 0.96 55.43 5.56L55.43 5.56L55.43 5.56Q54.57 7.60 54.03 9.42L54.03 9.42L54.03 9.42Q53.50 11.23 52.64 13.80L52.64 13.80L52.64 13.80Q51.79 16.37 49.65 19.42L49.65 19.42L49.65 19.42Q47.51 22.47 44.30 24.61L44.30 24.61L44.30 24.61Q37.45 29.32 28.62 29.32L28.62 29.32L28.62 29.32Q19.79 29.32 13.86 25.41L13.86 25.41L13.86 25.41Q7.92 21.51 7.92 14.66L7.92 14.66L7.92 14.66Q7.92 11.34 11.13 9.20L11.13 9.20L11.13 9.20Q14.34 7.06 19.47 5.51L19.47 5.51L19.47 5.51Q24.61 3.96 31.03 2.78L31.03 2.78L31.03 2.78Q37.45 1.60 43.87 0.11L43.87 0.11L43.87 0.11Q44.73-2.35 45.15-4.49L45.15-4.49L45.15-4.49Q40.98-1.28 34.88-1.28L34.88-1.28L34.88-1.28Q22.15-1.28 14.87-6.53L14.87-6.53L14.87-6.53Q6.42-12.63 6.42-25.57L6.42-25.57L6.42-25.57Q6.42-42.48 14.98-57.67L14.98-57.67L14.98-57.67Q12.41-60.67 10.81-63.93L10.81-63.93L10.81-63.93Q9.20-67.20 9.20-68.91L9.20-68.91L9.20-68.91Q9.20-71.90 11.34-71.80L11.34-71.80L11.34-71.80Q12.73-71.80 14.55-70.08L14.55-70.08L14.55-70.08Q16.37-68.37 17.49-67.20L17.49-67.20L17.49-67.20Q18.62-66.02 19.90-65.06L19.90-65.06L19.90-65.06Q25.47-72.12 32.96-76.50L32.96-76.50L32.96-76.50Q40.45-80.89 49.43-80.89L49.43-80.89L49.43-80.89Q58.42-80.89 63.45-77.58L63.45-77.58L63.45-77.58Q68.48-74.26 68.48-66.02L68.48-66.02L68.48-66.02Q68.48-57.78 62.11-52.32L62.11-52.32L62.11-52.32Q55.75-46.87 44.41-46.87L44.41-46.87L44.41-46.87Q36.59-46.87 27.50-50.40ZM31.03-57.67L31.03-57.67L31.03-57.67Q36.91-55.10 45.26-55.10L45.26-55.10L45.26-55.10Q50.40-55.10 53.50-57.89L53.50-57.89L53.50-57.89Q56.60-60.67 56.60-63.93L56.60-63.93L56.60-63.93Q56.60-67.20 54.52-68.75L54.52-68.75L54.52-68.75Q52.43-70.30 49.01-70.30L49.01-70.30L49.01-70.30Q38.73-70.30 31.03-57.67ZM27.39 21.08L27.39 21.08L27.39 21.08Q34.67 21.08 40.13 10.16L40.13 10.16L40.13 10.16Q34.24 11.66 30.17 12.52L30.17 12.52L30.17 12.52Q26.11 13.38 23.59 14.02L23.59 14.02L23.59 14.02Q21.08 14.66 19.96 15.30L19.96 15.30L19.96 15.30Q18.83 15.94 18.83 17.12L18.83 17.12L18.83 17.12Q18.83 19.15 21.56 20.06L21.56 20.06L21.56 20.06Q24.29 20.97 27.39 21.08ZM98.97 0.32L98.97 0.32L98.97 0.32Q83.67 0.43 78.11-11.13L78.11-11.13L78.11-11.13Q76.18-15.19 76.18-21.35L76.18-21.35L76.18-21.35Q76.18-27.50 77.25-34.45L77.25-34.45L77.25-34.45Q79.39-48.36 85.49-60.13L85.49-60.13L85.49-60.13Q88.60-66.13 92.45-70.41L92.45-70.41L92.45-70.41Q100.90-79.82 111.28-79.72L111.28-79.72L111.28-79.72Q115.88-79.72 118.50-77.20L118.50-77.20L118.50-77.20Q121.12-74.69 121.12-69.98L121.12-69.98L121.12-69.98Q121.12-65.27 118.34-60.51L118.34-60.51L118.34-60.51Q115.56-55.75 111.23-50.66L111.23-50.66L111.23-50.66Q106.89-45.58 101.65-40.02L101.65-40.02L101.65-40.02Q96.41-34.45 91.38-27.93L91.38-27.93L91.38-23.65L91.38-23.65Q91.38-17.66 93.95-14.87L93.95-14.87L93.95-14.87Q96.51-12.09 99.94-12.09L99.94-12.09L99.94-12.09Q109.14-12.09 116.20-21.19L116.20-21.19L116.20-21.19Q119.09-24.93 120.59-24.93L120.59-24.93L120.59-24.93Q122.09-24.93 122.09-21.29L122.09-21.29L122.09-21.29Q122.09-17.66 120.11-13.86L120.11-13.86L120.11-13.86Q118.13-10.06 114.92-6.90L114.92-6.90L114.92-6.90Q111.71-3.75 107.53-1.71L107.53-1.71L107.53-1.71Q103.36 0.32 98.97 0.32ZM104.75-57.14L104.75-57.14L104.75-57.14Q107-59.92 108.28-62.17L108.28-62.17L108.28-62.17Q109.57-64.41 109.57-66.82L109.57-66.82L109.57-66.82Q109.57-69.23 107.86-69.23L107.86-69.23L107.86-69.23Q104.11-69.23 99.56-61.52L99.56-61.52L99.56-61.52Q95.02-53.82 92.77-41.30L92.77-41.30L92.77-41.30Q96.41-46.87 99.46-50.61L99.46-50.61L99.46-50.61Q102.51-54.36 104.75-57.14ZM159.00-9.10L159.00-9.10L159.00-9.10Q150.55 0.86 138.73 0.86L138.73 0.86L138.73 0.86Q126.90 0.86 121.02-5.19L121.02-5.19L121.02-5.19Q115.13-11.23 115.24-20.22L115.24-20.22L115.24-20.22Q115.13-32.96 123.26-42.16L123.26-42.16L123.26-42.16Q131.40-51.36 144.56-51.36L144.56-51.36L144.56-51.36Q150.55-51.36 154.19-49.86L154.19-49.86L154.19-49.86Q160.50-47.29 160.50-45.05L160.50-45.05L160.50-45.05Q160.50-43.34 151.67-43.28L151.67-43.28L151.67-43.28Q142.84-43.23 136.91-37.18L136.91-37.18L136.91-37.18Q130.97-31.14 130.97-21.93L130.97-21.93L130.97-21.93Q130.97-17.12 133.80-13.86L133.80-13.86L133.80-13.86Q136.64-10.59 141.83-10.59L141.83-10.59L141.83-10.59Q147.02-10.59 150.44-12.73L150.44-12.73L150.44-12.73Q142.84-17.87 142.84-27.61L142.84-27.61L142.84-27.61Q142.74-32.74 146.54-36.97L146.54-36.97L146.54-36.97Q150.33-41.20 156.27-41.25L156.27-41.25L156.27-41.25Q162.21-41.30 164.78-37.98L164.78-37.98L164.78-37.98Q167.35-34.67 167.35-29.48L167.35-29.48L167.35-29.48Q167.35-24.29 164.89-18.51L164.89-18.51L165.53-18.51L165.53-18.51Q170.24-18.62 173.66-21.83L173.66-21.83L173.66-21.83Q174.94-23.11 175.85-24.07L175.85-24.07L175.85-24.07Q176.76-25.04 177.73-25.04L177.73-25.04L177.73-25.04Q179.22-25.04 179.22-21.51L179.22-21.51L179.22-21.51Q179.22-14.98 175.37-11.72L175.37-11.72L175.37-11.72Q171.52-8.45 166.87-8.45L166.87-8.45L166.87-8.45Q162.21-8.45 159.00-9.10ZM158.04-21.51L158.04-21.51L158.04-21.51Q159.86-25.36 159.86-29.00L159.86-29.00L159.86-29.00Q159.86-32.63 157.50-32.63L157.50-32.63L157.50-32.63Q156.54-32.63 155.90-31.24L155.90-31.24L155.90-31.24Q155.26-29.85 155.26-28.57L155.26-28.57L155.26-28.57Q155.26-24.29 158.04-21.51ZM198.27-51.84L198.27-51.84L198.27-51.84Q205.44-51.89 208.97-49.17L208.97-49.17L208.97-49.17Q212.50-46.44 212.50-41.36L212.50-41.36L212.50-41.36Q212.50-36.27 209.45-32.69L209.45-32.69L209.45-32.69Q206.40-29.10 202.02-27.61L202.02-27.61L202.02-27.61Q205.12-24.40 207.63-21.08L207.63-21.08L207.63-21.08Q210.15-17.76 210.15-14.12L210.15-14.12L210.15-14.12Q210.15-6.96 204.48-3.05L204.48-3.05L204.48-3.05Q198.81 0.86 188.69 0.86L188.69 0.86L188.69 0.86Q178.58 0.86 173.55-3.16L173.55-3.16L173.55-3.16Q168.53-7.17 168.53-12.25L168.53-12.25L168.53-12.25Q168.53-17.33 171.04-21.51L171.04-21.51L171.04-21.51Q173.55-25.68 176.44-25.68L176.44-25.68L176.44-25.68Q178.16-25.68 178.90-24.45L178.90-24.45L178.90-24.45Q179.65-23.22 181.69-17.33L181.69-17.33L181.69-17.33Q182.44-15.19 184.15-13.27L184.15-13.27L184.15-13.27Q188.11-8.88 196.67-8.88L196.67-8.88L196.67-8.88Q195.38-12.95 192.55-15.89L192.55-15.89L192.55-15.89Q189.71-18.83 186.93-21.61L186.93-21.61L186.93-21.61Q184.15-24.40 182.01-27.55L182.01-27.55L182.01-27.55Q179.87-30.71 179.87-34.99L179.87-34.99L179.87-34.99Q179.87-42.69 185.64-47.51L185.64-47.51L185.64-47.51Q191.10-51.79 198.27-51.84ZM197.84-31.99L197.84-31.99L197.84-31.99Q202.12-36.59 202.12-39.38L202.12-39.38L202.12-39.38Q202.12-40.66 201.21-41.68L201.21-41.68L201.21-41.68Q200.30-42.69 198.59-42.69L198.59-42.69L198.59-42.69Q196.88-42.69 195.33-42.27L195.33-42.27L195.33-42.27Q193.78-41.84 192.81-41.62L192.81-41.62L192.81-41.62Q192.81-37.56 197.84-31.99ZM241.18-51.84L241.18-51.84L241.18-51.84Q248.35-51.89 251.88-49.17L251.88-49.17L251.88-49.17Q255.41-46.44 255.41-41.36L255.41-41.36L255.41-41.36Q255.41-36.27 252.36-32.69L252.36-32.69L252.36-32.69Q249.31-29.10 244.92-27.61L244.92-27.61L244.92-27.61Q248.03-24.40 250.54-21.08L250.54-21.08L250.54-21.08Q253.06-17.76 253.06-14.12L253.06-14.12L253.06-14.12Q253.06-6.96 247.38-3.05L247.38-3.05L247.38-3.05Q241.71 0.86 231.60 0.86L231.60 0.86L231.60 0.86Q221.49 0.86 216.46-3.16L216.46-3.16L216.46-3.16Q211.43-7.17 211.43-12.25L211.43-12.25L211.43-12.25Q211.43-17.33 213.95-21.51L213.95-21.51L213.95-21.51Q216.46-25.68 219.35-25.68L219.35-25.68L219.35-25.68Q221.06-25.68 221.81-24.45L221.81-24.45L221.81-24.45Q222.56-23.22 224.59-17.33L224.59-17.33L224.59-17.33Q225.34-15.19 227.05-13.27L227.05-13.27L227.05-13.27Q231.01-8.88 239.57-8.88L239.57-8.88L239.57-8.88Q238.29-12.95 235.45-15.89L235.45-15.89L235.45-15.89Q232.62-18.83 229.84-21.61L229.84-21.61L229.84-21.61Q227.05-24.40 224.91-27.55L224.91-27.55L224.91-27.55Q222.77-30.71 222.77-34.99L222.77-34.99L222.77-34.99Q222.77-42.69 228.55-47.51L228.55-47.51L228.55-47.51Q234.01-51.79 241.18-51.84ZM240.75-31.99L240.75-31.99L240.75-31.99Q245.03-36.59 245.03-39.38L245.03-39.38L245.03-39.38Q245.03-40.66 244.12-41.68L244.12-41.68L244.12-41.68Q243.21-42.69 241.50-42.69L241.50-42.69L241.50-42.69Q239.79-42.69 238.24-42.27L238.24-42.27L238.24-42.27Q236.68-41.84 235.72-41.62L235.72-41.62L235.72-41.62Q235.72-37.56 240.75-31.99Z" fill="#ae0606"></path></g></g><style>text {
  font-size: 64px;
  font-family: Arial Black;
  dominant-baseline: central;
  text-anchor: middle;
}</style></svg>
